<?xml version="1.0" encoding="utf-8"?>
<!-- Generator: Adobe Illustrator 19.2.1, SVG Export Plug-In . SVG Version: 6.00 Build 0)  -->
<svg version="1.1" id="Layer_1" xmlns="http://www.w3.org/2000/svg" xmlns:xlink="http://www.w3.org/1999/xlink" x="0px" y="0px"
	 viewBox="0 0 31.2 31.2" style="enable-background:new 0 0 31.2 31.2;" xml:space="preserve">
<style type="text/css">
	.st0{fill-rule:evenodd;clip-rule:evenodd;fill:#F9F7F4;}
</style>
<path class="st0" d="M24.1,17.8c0-3.1-0.7-5.5-4.3-5.5c-1.4-0.1-2.7,0.7-3.4,1.9h-0.1v-1.6h-3.4l0,11.6h3.6v-5.7c0-1.5,0.3-3,2.2-3
	c1.8,0,1.9,1.7,1.9,3.1v5.6h3.6V17.8z M10.9,8.9c0-1.2-0.9-2.1-2.1-2.1S6.8,7.7,6.8,8.9C6.8,10,7.7,11,8.8,11S10.9,10,10.9,8.9z
	 M10.6,12.6H7v11.6h3.6V12.6z M31,15.5c0,8.6-6.9,15.5-15.5,15.5S0,24.1,0,15.5C0,6.9,6.9,0,15.5,0S31,6.9,31,15.5z"/>
</svg>
