<?xml version="1.0" encoding="utf-8"?>
<!-- Generator: Adobe Illustrator 19.2.1, SVG Export Plug-In . SVG Version: 6.00 Build 0)  -->
<svg version="1.1" id="Layer_1" xmlns="http://www.w3.org/2000/svg" xmlns:xlink="http://www.w3.org/1999/xlink" x="0px" y="0px"
	 viewBox="0 0 31.2 31.2" style="enable-background:new 0 0 31.2 31.2;" xml:space="preserve">
<style type="text/css">
	.st0{fill-rule:evenodd;clip-rule:evenodd;fill:#F9F7F4;}
</style>
<path class="st0" d="M24.2,10.2c-0.7,0.3-1.3,0.5-2,0.6c0.7-0.5,1.3-1.2,1.6-2c-0.7,0.4-1.5,0.7-2.3,0.9c-1.4-1.4-3.6-1.5-5.1-0.2
	c-0.7,0.7-1.1,1.6-1.1,2.6c0,0.3,0,0.5,0.1,0.8c-2.9-0.1-5.6-1.5-7.4-3.7c-0.9,1.6-0.5,3.7,1.1,4.8c-0.6,0-1.1-0.2-1.6-0.5v0
	c0,1.7,1.2,3.2,2.9,3.5c-0.5,0.1-1.1,0.2-1.6,0.1c0.5,1.5,1.8,2.4,3.3,2.5c-1.3,1-2.8,1.5-4.4,1.5c-0.3,0-0.6,0-0.9,0
	c1.6,1.1,3.5,1.6,5.5,1.6c6.6,0,10.2-5.5,10.2-10.2V12C23.2,11.5,23.8,10.9,24.2,10.2z M31.1,15.6c0,8.6-7,15.6-15.5,15.6
	S0,24.2,0,15.6S7,0,15.5,0S31.1,7,31.1,15.6z"/>
</svg>
