<?xml version="1.0" encoding="utf-8"?>
<!-- Generator: Adobe Illustrator 19.2.1, SVG Export Plug-In . SVG Version: 6.00 Build 0)  -->
<svg version="1.1" id="Layer_1" xmlns="http://www.w3.org/2000/svg" xmlns:xlink="http://www.w3.org/1999/xlink" x="0px" y="0px"
	 viewBox="0 0 31.2 31.2" style="enable-background:new 0 0 31.2 31.2;" xml:space="preserve">
<style type="text/css">
	.st0{fill:#F9F7F4;}
	.st1{fill-rule:evenodd;clip-rule:evenodd;fill:#F9F7F4;}
</style>
<g>
	<polygon class="st0" points="13.7,12.8 18.4,15.2 13.7,17.7 	"/>
	<path class="st1" d="M24.2,12.1c0-1.4-1.1-2.5-2.5-2.5H9.3c-1.4,0-2.5,1.1-2.5,2.5V19c0,1.4,1.1,2.5,2.5,2.5h12.4
		c1.4,0,2.5-1.1,2.5-2.5V12.1z M31,15.5c0,8.6-6.9,15.5-15.5,15.5S0,24.1,0,15.5C0,6.9,6.9,0,15.5,0S31,6.9,31,15.5z"/>
</g>
</svg>
